<svg xmlns="http://www.w3.org/2000/svg" xmlns:xlink="http://www.w3.org/1999/xlink" width="145" height="145" viewBox="0 0 145 145">
    <defs>
        <circle id="b" cx="56" cy="56" r="56"/>
        <filter id="a" width="166.1%" height="166.1%" x="-33%" y="-31.2%" filterUnits="objectBoundingBox">
            <feOffset dy="2" in="SourceAlpha" result="shadowOffsetOuter1"/>
            <feGaussianBlur in="shadowOffsetOuter1" result="shadowBlurOuter1" stdDeviation="12"/>
            <feColorMatrix in="shadowBlurOuter1" values="0 0 0 0 1 0 0 0 0 0.415686275 0 0 0 0 0.266666667 0 0 0 0.3 0"/>
        </filter>
        <path id="c" d="M1.765 7.05h26.471v20.268H1.765z"/>
        <path id="d" d="M0 .881h30v7.931H0z"/>
    </defs>
    <g fill="none" fill-rule="evenodd">
        <g transform="translate(17 17)">
            <use fill="#000" filter="url(#a)" xlink:href="#b"/>
            <use fill="#FFF" xlink:href="#b"/>
        </g>
        <g stroke-linecap="round" stroke-linejoin="round" transform="translate(58 62.683)">
            <use fill="#FFF" xlink:href="#c"/>
            <path stroke="#FF6A44" stroke-width="1.5" d="M1.015 6.3h27.971v21.768H1.015z"/>
        </g>
        <g stroke-linecap="round" stroke-linejoin="round" transform="translate(58 62.683)">
            <use fill="#FFF" xlink:href="#d"/>
            <path stroke="#FF6A44" stroke-width="1.5" d="M-.75.131h31.5v9.431H-.75z"/>
        </g>
        <path stroke="#FF6A44" stroke-linecap="square" stroke-width="1.5" d="M72.78 63.124V89.69"/>
        <path stroke="#FF6A44" stroke-width="1.5" d="M72.576 62.15c.988-3.49.674-6.197-.942-8.124-2.425-2.889-5.306-3.189-7.21-1.591-1.904 1.597-2.11 4.487.315 7.377 1.617 1.926 4.229 2.705 7.837 2.339zM73.763 61.892c-.298-2.796.293-4.815 1.775-6.058 2.222-1.865 4.456-1.694 5.699-.213 1.242 1.48 1.023 3.71-1.2 5.575-1.481 1.243-3.573 1.475-6.274.696z"/>
    </g>
</svg>
