<svg xmlns="http://www.w3.org/2000/svg" width="64" height="64" viewBox="0 0 64 64">
    <g fill="none" fill-rule="evenodd">
        <g stroke="#000" stroke-width="1.5">
            <path d="M42.585 25.868c0-5.909-4.79-10.698-10.698-10.698-5.909 0-10.698 4.79-10.698 10.698s4.79 10.698 10.698 10.698 10.698-4.79 10.698-10.698"/>
            <path stroke-linejoin="round" d="M48.193 40.502c-.926 1.313-1.82 2.476-3.439 4.507-.578.726-.865 1.086-1.151 1.448-.54.682-.98 1.245-1.395 1.79a547.682 547.682 0 0 1-4.976 6.354c.068-.084-1.536 1.973-2.293 2.918l-.18.225a53.625 53.625 0 0 1-1.67 1.997 8.943 8.943 0 0 1-.63.652c-.11.101-.209.177-.312.236-.338.192-.723.243-1.056-.181L17.856 43.375c-5.69-7.302-7.606-10.988-7.606-16.867 0-11.744 9.69-21.258 21.637-21.258 11.946 0 21.637 9.514 21.637 21.258 0 4.8-1.779 9.06-5.331 13.994z"/>
        </g>
        <path stroke="#000" stroke-linecap="round" stroke-width="1.5" d="M31.75 20.5v6M34.69 29.734l-2.942-3.217"/>
    </g>
</svg>
