<svg xmlns="http://www.w3.org/2000/svg" width="64" height="64" viewBox="0 0 64 64">
    <g fill="none" fill-rule="evenodd">
        <g stroke="#000" stroke-width="1.5" transform="translate(10 5)">
            <path stroke-linecap="round" stroke-linejoin="round" d="M-2.128 26.63h53.256l-6.4 5.15H4.272l-6.401-5.15z"/>
            <path d="M47.33 26.63C46.938 14.285 36.866 4.4 24.5 4.4c-12.365 0-22.437 9.885-22.83 22.23h45.66z"/>
            <ellipse cx="24.5" cy="1.825" rx="1.815" ry="1.825"/>
        </g>
        <path stroke="#000" stroke-width="1.53" d="M14.832 40.965c.026-.04.052-.078.079-.116l-.205.2.126-.084zm6.251-3.837c.738-.155 1.784-.347 1.994-.347v-.765l-.122-.755-2.12.344.105 1.52.143.003zm30.152.673l.748.016-.748-.764v.748z"/>
        <path fill="#FFF" d="M1.393 51.032l12.786-10.729 10.537 12.558L11.93 63.59z"/>
        <path stroke="#000" stroke-linecap="round" stroke-linejoin="round" stroke-width="1.53" d="M1.088 48.844L14.2 39.966l10.043 12.225-11.728 10.477"/>
    </g>
</svg>
