<svg version="1" xmlns="http://www.w3.org/2000/svg" width="346.667" height="346.667" viewBox="0 0 260.000000 260.000000"><path d="M45.5 66c-7.4 2.4-12 5.9-16.1 12.4-2.5 3.9-2.7 5-2.7 13.1-.1 10.4 4.3 17.4 14.3 23 7.7 4.3 23 2.4 30-3.8 2.5-2.3 8.4-9.7 7.7-9.7-.2 0 .1-2.1.8-4.7 1.6-6.3-.6-17-4-19.5-.5-.4-.7-.8-.2-.8 1.7 0-7.3-7.1-11.4-8.8-4.4-1.9-14.3-2.6-18.4-1.2zm75.5-.1c-14 4.4-21.7 17.1-18.7 30.9 4.1 19.6 29.7 26.8 45.5 12.7 7.6-6.7 10.1-21.6 5.2-29.9-4.1-6.7-9-10.9-15.5-13.2-3.8-1.3-13.1-1.6-16.5-.5zm75.8.1c-1 .6-1.8.8-1.8.5 0-.9-5.5 2.2-9 5.1-1.7 1.5-4.4 4.6-5.8 6.8-2.3 3.6-2.7 5.2-2.7 12.1 0 12.4 4.2 19 15.4 24.1 8.3 3.8 19.4 2.9 26.4-2.1 5.3-3.8 6.4-5 8.9-9.6 2.2-3.9 2.6-5.7 2.4-11.5-.3-9.2-.9-10.9-5.3-16.2-5.5-6.5-11.3-9.3-19.8-9.8-4.1-.3-7.7 0-8.7.6zM11 149.4c-.8 1.1-3.5 6.2-6.2 11.2l-4.7 9.2 8.2 3.5c17.9 7.7 46.3 15.4 66.7 18.2 1.4.2 3.9.6 5.6.9 1.6.3 6.8.8 11.5 1.2 4.6.3 10.7.8 13.4 1 6.1.5 44.3.5 50.5 0 2.5-.2 8.1-.7 12.5-1 10.2-.8 13.3-1.2 17-1.9 1.7-.4 4.7-.9 6.8-1.2 2.1-.3 7.3-1.2 11.5-2.1 4.2-.9 8.7-1.8 9.9-2 5.3-1 29.4-8.9 37.5-12.2 6.3-2.7 8.8-4.2 8.8-5.4 0-1-2.3-6.2-5.2-11.6-4.6-8.7-5.5-9.8-7.5-9.4-1.3.2-2.3.8-2.3 1.2 0 .4-.8 1-1.7 1.3-1 .3-5.6 1.9-10.3 3.7-4.7 1.7-9.4 3.3-10.4 3.5-1.1.3-4 1.1-6.5 1.9-10 3.3-28.8 7-41.1 8.1-3.6.3-7.2.8-8 1-1.8.5-30.3 1.8-38 1.8-11.6-.1-38.3-1.8-45-2.8-13.3-2.1-17.4-2.8-23-4.1-3.6-.9-7.6-1.8-9-2-1.4-.3-4.1-1-6-1.6-4.2-1.3-6.5-2-6.5-1.8 0 .2-16.9-6.2-21.6-8.3l-5.6-2.4-1.3 2.1z"/></svg>