<svg xmlns="http://www.w3.org/2000/svg" xmlns:xlink="http://www.w3.org/1999/xlink" width="145" height="145" viewBox="0 0 145 145"><defs><circle id="b" cx="56" cy="56" r="56"/><filter id="a" width="150%" height="150%" x="-25%" y="-23.2%" filterUnits="objectBoundingBox"><feOffset dy="2" in="SourceAlpha" result="shadowOffsetOuter1"/><feGaussianBlur in="shadowOffsetOuter1" result="shadowBlurOuter1" stdDeviation="9"/><feColorMatrix in="shadowBlurOuter1" values="0 0 0 0 0.0235294118 0 0 0 0 0.658823529 0 0 0 0 0.925490196 0 0 0 0.3 0"/></filter><path id="c" d="M15 0h9a2 2 0 0 1 2 2v24a2 2 0 0 1-2 2h-9a2 2 0 0 1-2-2V2a2 2 0 0 1 2-2z"/><rect id="d" width="39" height="28" y="5" rx="3"/><rect id="f" width="39" height="28" y="-7" rx="3"/></defs><g fill="none" fill-rule="evenodd"><g transform="translate(17 17)"><use fill="#000" filter="url(#a)" xlink:href="#b"/><use fill="#FFF" xlink:href="#b"/></g><g transform="translate(54 57)"><use fill="#FFF" xlink:href="#c"/><path stroke="#06A8EC" stroke-width="1.5" d="M15-.75h9A2.75 2.75 0 0 1 26.75 2v24A2.75 2.75 0 0 1 24 28.75h-9A2.75 2.75 0 0 1 12.25 26V2A2.75 2.75 0 0 1 15-.75z"/><mask id="e" fill="#fff"><use xlink:href="#d"/></mask><use fill="#FFF" xlink:href="#d"/><rect width="40.5" height="29.5" x="-.75" y="4.25" stroke="#06A8EC" stroke-width="1.5" rx="3"/><g mask="url(#e)"><use fill="#FFF" xlink:href="#f"/><rect width="40.5" height="29.5" x="-.75" y="-7.75" stroke="#06A8EC" stroke-width="1.5" rx="3"/></g><circle cx="19.5" cy="16.5" r="1.5" fill="#06A8EC" mask="url(#e)"/></g></g></svg>