<svg xmlns="http://www.w3.org/2000/svg" width="64" height="64" viewBox="0 0 64 64">
    <g fill="none" fill-rule="evenodd">
        <path d="M0 0h64v64H0z"/>
        <path fill="#000" d="M31.3 43.45v-2.5c-2.15-.2-4.117-1.058-5.9-2.575l1.125-1.5c1.567 1.4 3.183 2.192 4.85 2.375V33c-1.867-.45-3.22-1.05-4.063-1.8-.841-.75-1.262-1.783-1.262-3.1 0-1.283.487-2.35 1.462-3.2.976-.85 2.238-1.317 3.788-1.4v-1.45h1.6v1.5c1.667.15 3.258.817 4.775 2l-1.075 1.5c-1.133-.967-2.392-1.567-3.775-1.8v6.15c1.9.433 3.275 1.037 4.125 1.813.85.775 1.275 1.804 1.275 3.087 0 1.333-.492 2.425-1.475 3.275-.983.85-2.267 1.325-3.85 1.425v2.45h-1.6zm.075-12.4v-5.875c-1.033.033-1.858.317-2.475.85-.617.533-.925 1.2-.925 2 0 .75.242 1.358.725 1.825.483.467 1.375.867 2.675 1.2zm1.45 8.275c1.05-.05 1.892-.346 2.525-.888.633-.541.95-1.229.95-2.062 0-.767-.246-1.383-.737-1.85-.492-.467-1.405-.858-2.738-1.175v5.975z"/>
        <circle cx="32" cy="32" r="27.25" stroke="#000" stroke-width="1.5"/>
    </g>
</svg>
